<svg id="SvgjsSvg1011" width="288" height="288" xmlns="http://www.w3.org/2000/svg" version="1.1" xmlns:xlink="http://www.w3.org/1999/xlink" xmlns:svgjs="http://svgjs.com/svgjs"><defs id="SvgjsDefs1012"></defs><g id="SvgjsG1013"><svg xmlns="http://www.w3.org/2000/svg" enable-background="new 0 0 24 24" viewBox="0 0 24 24" width="288" height="288"><path d="M17,9V7c0-2.8-2.2-5-5-5S7,4.2,7,7v2c-1.7,0-3,1.3-3,3v7c0,1.7,1.3,3,3,3h10c1.7,0,3-1.3,3-3v-7C20,10.3,18.7,9,17,9z M9,7	c0-1.7,1.3-3,3-3s3,1.3,3,3v2H9V7z" fill="#0075b6" class="color000 svgShape" style="--darkreader-inline-fill: #005e92;" data-darkreader-inline-fill=""></path></svg></g></svg>